<svg viewBox="0 0 24 24" xmlns="http://www.w3.org/2000/svg" aria-hidden="true">
  <path fill="currentColor" d="M12 .5a12 12 0 0 0-3.79 23.4c.6.11.82-.26.82-.58v-2.03c-3.34.73-4.04-1.61-4.04-1.61-.55-1.39-1.35-1.76-1.35-1.76-1.1-.75.08-.74.08-.74 1.22.09 1.86 1.25 1.86 1.25 1.08 1.85 2.84 1.32 3.53 1.01.11-.79.42-1.32.77-1.62-2.67-.3-5.48-1.34-5.48-5.96 0-1.32.47-2.39 1.24-3.23-.12-.3-.54-1.52.12-3.18 0 0 1.01-.32 3.3 1.23a11.45 11.45 0 0 1 6.01 0c2.29-1.55 3.3-1.23 3.3-1.23.66 1.66.24 2.88.12 3.18.77.84 1.24 1.91 1.24 3.23 0 4.63-2.81 5.66-5.49 5.96.43.37.82 1.1.82 2.23v3.31c0 .32.22.69.83.58A12 12 0 0 0 12 .5Z"/>
</svg>

